PathFileType	4	(X/Y/Z)	C:/Users/opensim2020/Desktop/walking_exp_matlab/subject02_walking12_straight_01.trc																																																																																																																												
DataRate	CameraRate	NumFrames	NumMarkers	Units	OrigDataRate	OrigDataStartFrame	OrigNumFrames																																																																																																																								
100	100	4	42	mm	100	519	178																																																																																																																								
Frame#	Time	LFHD			RFHD			LBHD			RBHD			C7			T10			CLAV			STRN			RBAK			LSHO			LUPA			LELB			LFRM			LWRA			LWRB			LFIN			RSHO			RUPA			RELB			RFRM			RWRA			RWRB			RFIN			LASI			RASI			LPSI			RPSI			LTHI			LKNE			LTIB			LANK			LHEE			LTOE			RTHI			RKNE			RTIB			RANK			RHEE			RTOE			*39			*40			*41		
		X1	Y1	Z1	X2	Y2	Z2	X3	Y3	Z3	X4	Y4	Z4	X5	Y5	Z5	X6	Y6	Z6	X7	Y7	Z7	X8	Y8	Z8	X9	Y9	Z9	X10	Y10	Z10	X11	Y11	Z11	X12	Y12	Z12	X13	Y13	Z13	X14	Y14	Z14	X15	Y15	Z15	X16	Y16	Z16	X17	Y17	Z17	X18	Y18	Z18	X19	Y19	Z19	X20	Y20	Z20	X21	Y21	Z21	X22	Y22	Z22	X23	Y23	Z23	X24	Y24	Z24	X25	Y25	Z25	X26	Y26	Z26	X27	Y27	Z27	X28	Y28	Z28	X29	Y29	Z29	X30	Y30	Z30	X31	Y31	Z31	X32	Y32	Z32	X33	Y33	Z33	X34	Y34	Z34	X35	Y35	Z35	X36	Y36	Z36	X37	Y37	Z37	X38	Y38	Z38	X39	Y39	Z39	X40	Y40	Z40	X41	Y41	Z41	X42	Y42	Z42
																																																																																																																															
23	0.22	-1017.29053	1737.01611	-992.30182	-1026.14539	1707.39087	-848.52118	-1130.43628	1644.20825	-1016.49915	-1154.57275	1611.15833	-879.21521	-1186.28589	1511.25574	-950.86395	-1253.6582	1240.87891	-938.93945	-1052.06897	1437.35779	-970.95343	-1008.98724	1260.81763	-969.52557	-1248.14758	1342.34399	-884.93396	-1126.38464	1485.78418	-1135.93933	-1145.99817	1289.72388	-1223.96179	-1149.10669	1147.82788	-1243.01855	-1117.41797	1018.3739	-1259.72375	-1033.91553	909.23169	-1236.28479	-1082.96863	899.66632	-1262.48474	-1048.96716	842.5177	-1268.99414	-1094.09717	1467.63196	-771.10065	-1148.37854	1288.2511	-684.16608	-1161.52576	1143.43774	-664.08044	-1155.80591	1024.27576	-637.97577	-1131.29028	889.33984	-651.13037	-1177.95166	896.84387	-618.41418	-1155.05994	826.51178	-615.1922	-1062.52612	956.79022	-1090.93555	-1025.21606	956.6604	-841.05328	-1254.27136	1022.05591	-984.74445	-1242.27478	1026.70837	-868.36694	-1160.5199	652.15778	-1144.33801	-1203.53882	467.72635	-1122.70752	-1358.75378	368.7352	-1084.43311	-1497.10242	204.73912	-1027.3147	-1515.01831	201.93939	-962.3623	-1445.52466	67.36584	-1081.59851	-1048.92737	655.97302	-776.67017	-1021.04761	454.40042	-837.26483	-1068.1416	270.8461	-840.52283	-1102.93127	84.70663	-891.67993	-1141.93884	32.2651	-950.09045	-953.69086	33.07458	-880.35907	-1133.48401	1778.23633	-906.21948	2845.24438	1034.19592	-3360.43359	NaN	NaN	NaN
24	0.23	-1007.70264	1739.71899	-992.9184	-1016.05756	1710.06921	-848.80017	-1120.60254	1646.65625	-1016.67749	-1144.5011	1613.5647	-879.27649	-1176.01843	1513.62817	-950.73895	-1242.98425	1243.08643	-938.51404	-1041.91907	1439.8595	-971.1452	-998.55505	1263.31689	-969.64075	-1237.49243	1344.64966	-884.35364	-1116.67908	1487.89514	-1136.02856	-1137.71301	1291.64758	-1223.74341	-1141.7146	1149.71948	-1241.93884	-1112.42578	1019.6322	-1259.13074	-1031.29443	908.94653	-1234.83044	-1080.46985	900.41132	-1261.57837	-1047.45691	842.49243	-1267.70862	-1083.53284	1470.3739	-771.25391	-1135.77722	1290.21887	-683.91516	-1147.53125	1145.20032	-664.19958	-1140.55176	1026.03162	-638.7868	-1114.84216	891.47949	-652.52759	-1161.79749	898.15466	-619.49536	-1137.81995	828.50452	-616.40894	-1051.32703	959.6474	-1091.08521	-1014.99042	958.35333	-840.07678	-1243.45776	1024.44434	-984.92932	-1232.15442	1028.50305	-868.82971	-1141.62451	654.70105	-1146.47949	-1179.77808	469.98065	-1125.14819	-1333.89783	370.16327	-1085.07129	-1470.6626	204.50568	-1028.25269	-1488.81152	200.09319	-963.14441	-1415.61011	69.86185	-1084.67944	-1043.72791	656.37396	-776.46924	-1019.23077	454.16373	-836.85199	-1067.83362	270.93369	-840.30243	-1102.96265	84.84444	-891.76422	-1141.64636	32.10103	-949.99072	-953.84424	33.01756	-880.16827	-1123.69678	1780.68396	-906.37323	2845.22412	1034.05273	-3360.31616	NaN	NaN	NaN
25	0.24	-998.24005	1742.36475	-993.84796	-1005.91949	1712.50232	-849.38641	-1110.73547	1648.99841	-1016.92871	-1134.3905	1615.76038	-879.45569	-1165.7417	1515.80994	-950.71393	-1232.35486	1245.20203	-938.13879	-1031.55103	1442.10168	-971.41821	-988.20093	1265.64697	-969.72119	-1226.91431	1346.88037	-883.80585	-1106.96826	1489.91748	-1136.07019	-1129.125	1293.36609	-1223.12927	-1134.54736	1151.69507	-1241.01172	-1107.8866	1021.31537	-1257.76563	-1028.93567	908.66943	-1233.45496	-1078.06604	901.27472	-1260.70227	-1046.24048	842.63849	-1266.57507	-1072.77185	1473.13782	-771.34802	-1122.62646	1292.1792	-683.73425	-1133.61926	1147.12378	-664.34589	-1125.6377	1027.91895	-639.46503	-1098.05042	893.66907	-653.9621	-1144.93481	899.71979	-620.58875	-1119.48145	830.3866	-617.61578	-1040.20776	962.62195	-1091.35974	-1005.01221	960.00757	-839.05658	-1232.71851	1026.88489	-985.02203	-1222.09155	1030.32703	-869.10278	-1122.93213	657.39111	-1148.43958	-1156.20581	472.15656	-1127.49829	-1308.72803	371.26129	-1085.86353	-1443.39624	203.43639	-1029.76709	-1462.29382	198.2146	-964.86206	-1383.91089	71.48962	-1087.53821	-1038.88574	657.18604	-776.2121	-1017.45435	454.0795	-836.46039	-1067.46851	271.07513	-840.08582	-1103.08118	85.02795	-891.88129	-1141.61682	32.27012	-950.11237	-953.82214	32.95177	-879.91547	-1113.74988	1782.78955	-906.3576	2845.86353	1034.27014	-3357.28491	NaN	NaN	NaN
26	0.25	-988.26465	1744.4718	-994.17719	-995.7702	1714.80334	-849.99506	-1100.88245	1651.09375	-1017.23059	-1124.16711	1617.85657	-879.7688	-1155.43457	1517.85742	-950.65314	-1221.73584	1247.16492	-937.8111	-1021.13177	1444.21313	-971.71967	-977.73822	1267.74927	-970.00867	-1216.28857	1349.02393	-883.24469	-1097.10559	1491.73816	-1136.0249	-1120.73083	1295.29639	-1222.58899	-1127.57422	1153.63611	-1240.17505	-1103.31079	1022.73431	-1256.9978	-1026.7312	908.49078	-1232.40967	-1075.80798	902.22235	-1259.94812	-1045.21899	842.90497	-1265.60022	-1061.97424	1475.83521	-771.55219	-1109.86963	1294.00964	-683.36798	-1119.09448	1148.59497	-664.52753	-1109.25049	1029.41235	-640.46332	-1080.90417	895.95306	-655.20428	-1127.14551	901.16382	-621.58978	-1101.08252	832.34637	-618.6958	-1029.26624	965.5235	-1091.55798	-995.18121	961.58533	-838.15936	-1222.07129	1029.2699	-985.07123	-1212.71741	1032.70593	-868.78601	-1104.44958	660.23456	-1150.48206	-1132.92017	474.29822	-1129.64441	-1283.2738	371.80942	-1086.74878	-1415.05371	201.10323	-1031.94287	-1434.73694	194.79437	-967.1665	-1350.86426	71.82652	-1090.09485	-1033.20667	657.34729	-776.08429	-1016.15692	453.92117	-835.98688	-1066.94348	271.17325	-839.92645	-1103.02612	85.48378	-891.64246	-1141.61035	32.27246	-950.77325	-953.93719	32.95913	-879.69525	-1104.0293	1785.00635	-906.91559	2845.79321	1034.29712	-3357.33203	NaN	NaN	NaN
